<svg xmlns="http://www.w3.org/2000/svg" width="2000" height="40" viewBox="0 0 2000 40">
  <g fill="#72DA38" fill-rule="evenodd">
    <path d="M1991.09517,21.9470214 L1991.09517,39.6388889 L1986.09517,39.6388889 L1986.09517,21.8925043 L1985.79573,21.8892393 C1985.57397,21.8868214 1985.35221,21.8844034 1985.13044,21.8819854 C1980.42463,20.4794627 1977.00233,16.2225242 1977,11.1846098 C1977.00299,5.0066538 1982.15008,0 1988.50111,0 C1994.8528,0 2000,5.0066538 2000,11.1846098 C2000,16.3131799 1996.45302,20.6303759 1991.61589,21.9526991 L1991.09517,21.9470214 Z M1988.50044,5.09493804 C1985.04234,5.09493804 1982.23951,7.82129311 1982.23818,11.1854721 C1982.23951,14.54922 1985.04234,17.2750361 1988.50044,17.2764374 C1991.95899,17.2750361 1994.76126,14.54922 1994.76126,11.1854721 C1994.76126,7.82129311 1991.95899,5.09493804 1988.50044,5.09493804 Z M1988.41627,8.98934312 C1989.77669,8.98934312 1990.87916,10.0623068 1990.87916,11.3862913 C1990.87916,12.7102758 1989.77669,13.7829594 1988.41627,13.7836594 C1987.05571,13.7829594 1985.9531,12.7102758 1985.95252,11.3862913 C1985.9531,10.0623068 1987.05571,8.98934312 1988.41627,8.98934312 Z"/>
    <rect width="1991" height="5" y="35"/>
  </g>
</svg>
