<svg xmlns="http://www.w3.org/2000/svg" width="3000" height="40" viewBox="0 0 3000 40">
  <g fill="none" fill-rule="evenodd">
    <rect width="3000" height="40"/>
    <path fill="#72DA38" d="M1678,21.9459837 L1678,40 L1673,40 L1673,21.8914666 L1672.79573,21.8892393 C1672.57397,21.8868214 1672.35221,21.8844034 1672.13044,21.8819854 C1667.42463,20.4794627 1664.00233,16.2225242 1664,11.1846098 C1664.00299,5.0066538 1669.15008,0 1675.50111,0 C1681.8528,0 1687,5.0066538 1687,11.1846098 C1687,16.3131799 1683.45302,20.6303759 1678.61589,21.9526991 L1678,21.9459837 Z M1675.50044,5.09493804 C1672.04234,5.09493804 1669.23951,7.82129311 1669.23818,11.1854721 C1669.23951,14.54922 1672.04234,17.2750361 1675.50044,17.2764374 C1678.95899,17.2750361 1681.76126,14.54922 1681.76126,11.1854721 C1681.76126,7.82129311 1678.95899,5.09493804 1675.50044,5.09493804 Z M1672.95252,11.3862913 C1672.9531,10.0623068 1674.05571,8.98934312 1675.41627,8.98934312 C1676.77669,8.98934312 1677.87916,10.0623068 1677.87916,11.3862913 C1677.87916,12.7102758 1676.77669,13.7829594 1675.41627,13.7836594 C1674.05571,13.7829594 1672.9531,12.7102758 1672.95252,11.3862913 Z"/>
    <rect width="1678" height="5" y="35" fill="#72DA38"/>
  </g>
</svg>
