<svg xmlns="http://www.w3.org/2000/svg" width="260" height="48" viewBox="0 0 260 48">
    <g fill="#BAF77B" fill-rule="evenodd">
        <path d="M65.828 30.144L59.012 40h-2.496l8-11.296-7.968-11.36h2.432l6.912 9.92 6.88-9.92h2.464l-8.064 11.328L75.108 40h-2.464l-6.816-9.856zm24.16 9.824l-.32-2.336c-1.12 1.472-3.168 2.72-6.304 2.72-4.256 0-5.92-1.952-5.92-5.248 0-4.192 2.816-5.472 7.232-5.472 2.336 0 3.936.16 4.8.288-.064-4-.512-5.536-4.576-5.536-4.16 0-4.832 2.176-4.832 3.68h-1.952c0-2.048.672-5.472 6.688-5.472 7.008 0 6.784 3.68 6.784 8.928v4.16l.352 4.288h-1.952zm-6.24-1.472c3.648 0 5.728-2.208 5.728-3.776v-3.008c-.8-.096-2.24-.256-4.32-.256-3.616 0-5.536.864-5.536 3.552 0 1.952.928 3.488 4.128 3.488zm19.968 1.568h-1.408c-4.896 0-5.28-2.88-5.28-6.592v-8.704h-2.176V22.88h2.176v-5.056l2.112-.416v5.472h4.48v1.888h-4.48v8.64c0 2.848.352 4.672 3.296 4.672h1.28v1.984zm14.688-.096l-.32-2.336c-1.12 1.472-3.168 2.72-6.304 2.72-4.256 0-5.92-1.952-5.92-5.248 0-4.192 2.816-5.472 7.232-5.472 2.336 0 3.936.16 4.8.288-.064-4-.512-5.536-4.576-5.536-4.16 0-4.832 2.176-4.832 3.68h-1.952c0-2.048.672-5.472 6.688-5.472 7.008 0 6.784 3.68 6.784 8.928v4.16l.352 4.288h-1.952zm-6.24-1.472c3.648 0 5.728-2.208 5.728-3.776v-3.008c-.8-.096-2.24-.256-4.32-.256-3.616 0-5.536.864-5.536 3.552 0 1.952.928 3.488 4.128 3.488zM125.156 40V15.936h2.048v16.448l7.936-9.504h2.432l-5.472 6.4L138.436 40h-2.4l-5.28-9.12-3.552 4.16V40h-2.048zm27.584-.032l-.32-2.336c-1.12 1.472-3.168 2.72-6.304 2.72-4.256 0-5.92-1.952-5.92-5.248 0-4.192 2.816-5.472 7.232-5.472 2.336 0 3.936.16 4.8.288-.064-4-.512-5.536-4.576-5.536-4.16 0-4.832 2.176-4.832 3.68h-1.952c0-2.048.672-5.472 6.688-5.472 7.008 0 6.784 3.68 6.784 8.928v4.16l.352 4.288h-1.952zm-6.24-1.472c3.648 0 5.728-2.208 5.728-3.776v-3.008c-.8-.096-2.24-.256-4.32-.256-3.616 0-5.536.864-5.536 3.552 0 1.952.928 3.488 4.128 3.488zm19.872-21.248h7.52c6.72 0 8.384 2.24 8.384 5.664 0 2.336-.704 4.32-3.328 5.216 3.008.928 3.968 3.136 3.968 5.696 0 4.192-1.28 6.272-9.088 6.272h-7.456V17.248zm2.176 1.824v8.064l6.496.032c3.84 0 5.088-1.376 5.088-4.032 0-2.752-1.536-4.064-6.112-4.064h-5.472zm0 10.016v9.184h5.472c5.344 0 6.752-1.184 6.752-4.576 0-3.008-1.792-4.608-5.728-4.608h-6.496zm30.336 10.88l-.32-2.336c-1.12 1.472-3.168 2.72-6.304 2.72-4.256 0-5.92-1.952-5.92-5.248 0-4.192 2.816-5.472 7.232-5.472 2.336 0 3.936.16 4.8.288-.064-4-.512-5.536-4.576-5.536-4.16 0-4.832 2.176-4.832 3.68h-1.952c0-2.048.672-5.472 6.688-5.472 7.008 0 6.784 3.68 6.784 8.928v4.16l.352 4.288h-1.952zm-6.24-1.472c3.648 0 5.728-2.208 5.728-3.776v-3.008c-.8-.096-2.24-.256-4.32-.256-3.616 0-5.536.864-5.536 3.552 0 1.952.928 3.488 4.128 3.488zm25.632-2.976c0 3.04-2.08 4.896-7.04 4.832-4.448-.032-6.976-2.048-6.976-5.792h2.112c0 2.496 1.728 3.872 4.864 3.904 3.584.064 4.864-1.216 4.864-3.072.096-4.832-11.424-1.536-11.488-8.16-.032-2.912 2.144-4.768 6.72-4.704 4.416.032 6.496 2.016 6.496 5.44h-2.112c0-2.08-.992-3.552-4.352-3.616-3.648-.064-4.608 1.44-4.608 3.008 0 4.48 11.52 1.28 11.52 8.16zm3.808-16.064V15.84h2.144v3.616h-2.144zm0 20.544V22.88h2.112V40h-2.112zm20.832-5.504c-.064 3.552-2.208 5.856-7.04 5.856-5.664 0-7.392-3.36-7.392-8.864 0-5.44 1.728-8.96 7.392-8.96 4.896 0 6.976 2.4 7.04 6.464h-2.08c-.032-3.136-1.792-4.64-4.96-4.64-3.904 0-5.216 2.496-5.216 7.136 0 4.736 1.312 7.04 5.216 7.04 3.104 0 4.896-1.344 4.928-4.032h2.112zm16.8 1.024c0 3.04-2.08 4.896-7.04 4.832-4.448-.032-6.976-2.048-6.976-5.792h2.112c0 2.496 1.728 3.872 4.864 3.904 3.584.064 4.864-1.216 4.864-3.072.096-4.832-11.424-1.536-11.488-8.16-.032-2.912 2.144-4.768 6.72-4.704 4.416.032 6.496 2.016 6.496 5.44h-2.112c0-2.08-.992-3.552-4.352-3.616-3.648-.064-4.608 1.44-4.608 3.008 0 4.48 11.52 1.28 11.52 8.16zM38.575 23.3l.214-.175-6.58-2.974-1.652.779 6.639 2.992L22 30.788-.063 20.82 22 10.85l22.063 9.969-5.488 2.48zm-1.204.702l.217.098.806-.654.642-.296v6.984c1.612.164 2.96 1.873 2.96 3.576 0 2.05-1.696 3.713-3.787 3.713s-3.786-1.662-3.787-3.713c0-1.673 1.279-3.266 2.973-3.576.068 0-.013-5.397-.024-6.132zM8.856 26.45l13.249 6.013 13.208-6.013v3.356s-1.901.857-2.285 3.158c-.384 2.3 1.245 4.462 1.245 4.462-1.72 1.367-5.627 3.723-12.154 3.723-9.196 0-13.263-4.677-13.263-4.677V26.45zm29.353 5.376c-1.14 0-2.062.905-2.062 2.022 0 1.117.923 2.022 2.062 2.023 1.139 0 2.061-.906 2.061-2.023s-.922-2.022-2.061-2.022zm-.84 2.089c0-.44.364-.796.812-.796.448 0 .811.356.811.796 0 .44-.363.796-.811.796a.804.804 0 0 1-.811-.796z"/>
    </g>
</svg>
