<?xml version="1.0" encoding="UTF-8"?>
<svg width="173px" height="48px" viewBox="0 0 173 48" version="1.1" xmlns="http://www.w3.org/2000/svg" xmlns:xlink="http://www.w3.org/1999/xlink">
    <!-- Generator: Sketch 63.1 (92452) - https://sketch.com -->
    <title>xataka-nano_xataka_pro-logo-edge_juntas</title>
    <desc>Created with Sketch.</desc>
    <g id="xataka-nano_xataka_pro-logo-edge_juntas" stroke="none" stroke-width="1" fill="none" fill-rule="evenodd">
        <g id="Group-2-Copy" transform="translate(3.000000, 5.000000)" fill-rule="nonzero">
            <path d="M5.95408696,33.919858 L8.02017391,26.5195102 L8.50852174,20.9974232 L9.25982609,20.9974232 L9.74817391,26.5195102 L11.7391304,33.919858 L17.2612174,33.919858 L12.7909565,18.4805537 L17.1485217,3.86768412 L11.6264348,3.86768412 L9.74817391,10.8923798 L9.25982609,16.0388146 L8.50852174,16.0388146 L8.02017391,10.8923798 L6.06678261,3.86768412 L0.544695652,3.86768412 L5.12765217,18.2927276 L0.432,33.919858 L5.95408696,33.919858 Z M23.853913,33.919858 L24.4925217,27.6464667 L28.850087,27.6464667 L29.4886957,33.919858 L35.2737391,33.919858 L31.104,3.86768412 L22.2386087,3.86768412 L18.0688696,33.919858 L23.853913,33.919858 Z M28.3241739,22.687858 L25.0184348,22.687858 L25.6946087,16.0388146 L26.1453913,8.82629281 L27.1972174,8.82629281 L27.648,16.0388146 L28.3241739,22.687858 Z M46.3366957,33.919858 L46.3366957,8.82629281 L51.1638261,8.82629281 L51.1638261,3.86768412 L35.8747826,3.86768412 L35.8747826,8.82629281 L40.701913,8.82629281 L40.701913,33.919858 L46.3366957,33.919858 Z M57.549913,33.919858 L58.1885217,27.6464667 L62.546087,27.6464667 L63.1846957,33.919858 L68.9697391,33.919858 L64.8,3.86768412 L55.9346087,3.86768412 L51.7648696,33.919858 L57.549913,33.919858 Z M62.0201739,22.687858 L58.7144348,22.687858 L59.3906087,16.0388146 L59.8413913,8.82629281 L60.8932174,8.82629281 L61.344,16.0388146 L62.0201739,22.687858 Z M76.5954783,33.919858 L76.5954783,27.007858 L78.6991304,22.4624667 L81.9673043,33.919858 L87.6772174,33.919858 L82.4556522,16.2266406 L87.4518261,3.86768412 L81.2911304,3.86768412 L78.5864348,11.1553363 L76.7833043,17.8795102 L75.7690435,17.8795102 L76.7833043,11.1553363 L76.8584348,3.86768412 L70.848,3.86768412 L70.848,33.919858 L76.5954783,33.919858 Z M94.1572174,33.919858 L94.7958261,27.6464667 L99.1533913,27.6464667 L99.792,33.919858 L105.577043,33.919858 L101.407304,3.86768412 L92.541913,3.86768412 L88.3721739,33.919858 L94.1572174,33.919858 Z M98.6274783,22.687858 L95.3217391,22.687858 L95.997913,16.0388146 L96.4486957,8.82629281 L97.5005217,8.82629281 L97.9513043,16.0388146 L98.6274783,22.687858 Z" id="XATAKA" fill="#FDFBE3"></path>
            <g id="Group" transform="translate(114.000000, 0.000000)">
                <path d="M6.35478261,35.2173913 L6.35478261,25.6758261 L7.97008696,25.6758261 C10.7749565,25.6758261 12.8003478,25.106087 14.0462609,23.9666087 C15.2921739,22.8271304 15.9589565,20.9551304 16.0466087,18.3506087 C16.0841739,17.2987826 16.1029565,16.322087 16.1029565,15.4205217 C16.1029565,14.5189565 16.0841739,13.5422609 16.0466087,12.4904348 C15.9589565,9.8733913 15.2921739,7.99826087 14.0462609,6.86504348 C12.8003478,5.73182609 10.7749565,5.16521739 7.97008696,5.16521739 L7.97008696,5.16521739 L0.72,5.16521739 L0.72,35.2173913 L6.35478261,35.2173913 Z M7.97008696,20.7172174 L6.35478261,20.7172174 L6.35478261,10.1238261 L7.97008696,10.1238261 C9.52278261,10.1238261 10.3366957,10.8125217 10.4118261,12.189913 C10.4744348,13.104 10.5057391,14.1777391 10.5057391,15.4111304 C10.5057391,16.6445217 10.4744348,17.7245217 10.4118261,18.6511304 C10.3366957,20.0285217 9.52278261,20.7172174 7.97008696,20.7172174 L7.97008696,20.7172174 Z M24.0292174,35.2173913 L24.0292174,25.0747826 L25.3064348,25.0747826 L28.1613913,35.2173913 L34.1342609,35.2173913 L30.6031304,24.1356522 C31.6424348,23.5846957 32.4093913,22.7895652 32.904,21.7502609 C33.3986087,20.7109565 33.6709565,19.3773913 33.7210435,17.7495652 C33.746087,17.0483478 33.7617391,16.4347826 33.768,15.9088696 C33.7742609,15.3829565 33.7742609,14.8570435 33.768,14.3311304 C33.7617391,13.8052174 33.746087,13.1916522 33.7210435,12.4904348 C33.6333913,9.8733913 32.9666087,7.99826087 31.7206957,6.86504348 C30.4747826,5.73182609 28.4493913,5.16521739 25.6445217,5.16521739 L18.3944348,5.16521739 L18.3944348,35.2173913 L24.0292174,35.2173913 Z M25.6445217,20.1161739 L24.0292174,20.1161739 L24.0292174,10.1238261 L25.6445217,10.1238261 C27.1972174,10.1238261 28.0111304,10.8125217 28.0862609,12.189913 C28.2114783,14.1433043 28.2114783,16.0966957 28.0862609,18.050087 C28.0111304,19.4274783 27.1972174,20.1161739 25.6445217,20.1161739 L25.6445217,20.1161739 Z M44.1266087,35.5930435 C46.893913,35.5930435 48.8786087,35.0107826 50.0806957,33.8462609 C51.2827826,32.6817391 51.9276522,30.7471304 52.0153043,28.0424348 C52.1154783,25.5756522 52.1655652,22.9586087 52.1655652,20.1913043 C52.1655652,17.424 52.1154783,14.7944348 52.0153043,12.3026087 C51.9276522,9.61043478 51.2827826,7.68521739 50.0806957,6.52695652 C48.8786087,5.36869565 46.893913,4.78956522 44.1266087,4.78956522 C41.3718261,4.78956522 39.3777391,5.36869565 38.1443478,6.52695652 C36.9109565,7.68521739 36.2629565,9.61043478 36.2003478,12.3026087 C36.1502609,14.7568696 36.1252174,17.3770435 36.1252174,20.1631304 C36.1252174,22.9492174 36.1502609,25.5756522 36.2003478,28.0424348 C36.2629565,30.7471304 36.9109565,32.6817391 38.1443478,33.8462609 C39.3777391,35.0107826 41.3718261,35.5930435 44.1266087,35.5930435 Z M44.1266087,31.010087 C42.6365217,31.010087 41.8726957,30.3714783 41.8351304,29.0942609 C41.7850435,27.8170435 41.7443478,26.4146087 41.7130435,24.8869565 C41.6817391,23.3593043 41.666087,21.7878261 41.666087,20.1725217 C41.666087,18.5572174 41.6817391,16.9857391 41.7130435,15.458087 C41.7443478,13.9304348 41.7850435,12.528 41.8351304,11.2507826 C41.8726957,9.9986087 42.6365217,9.37252174 44.1266087,9.37252174 C45.5916522,9.37252174 46.3429565,9.9986087 46.3805217,11.2507826 C46.4431304,12.528 46.4869565,13.9304348 46.512,15.458087 C46.5370435,16.9857391 46.5495652,18.5572174 46.5495652,20.1725217 C46.5495652,21.7878261 46.5370435,23.3593043 46.512,24.8869565 C46.4869565,26.4146087 46.4431304,27.8170435 46.3805217,29.0942609 C46.3429565,30.3714783 45.5916522,31.010087 44.1266087,31.010087 Z" id="PRO" fill="#4F7D97"></path>
                <path d="M6.35478261,30.5217391 L6.35478261,20.9801739 L7.97008696,20.9801739 C10.7749565,20.9801739 12.8003478,20.4104348 14.0462609,19.2709565 C15.2921739,18.1314783 15.9589565,16.2594783 16.0466087,13.6549565 C16.0841739,12.6031304 16.1029565,11.6264348 16.1029565,10.7248696 C16.1029565,9.82330435 16.0841739,8.8466087 16.0466087,7.79478261 C15.9589565,5.17773913 15.2921739,3.3026087 14.0462609,2.1693913 C12.8003478,1.03617391 10.7749565,0.469565217 7.97008696,0.469565217 L7.97008696,0.469565217 L0.72,0.469565217 L0.72,30.5217391 L6.35478261,30.5217391 Z M7.97008696,16.0215652 L6.35478261,16.0215652 L6.35478261,5.42817391 L7.97008696,5.42817391 C9.52278261,5.42817391 10.3366957,6.11686957 10.4118261,7.49426087 C10.4744348,8.40834783 10.5057391,9.48208696 10.5057391,10.7154783 C10.5057391,11.9488696 10.4744348,13.0288696 10.4118261,13.9554783 C10.3366957,15.3328696 9.52278261,16.0215652 7.97008696,16.0215652 L7.97008696,16.0215652 Z M24.0292174,30.5217391 L24.0292174,20.3791304 L25.3064348,20.3791304 L28.1613913,30.5217391 L34.1342609,30.5217391 L30.6031304,19.44 C31.6424348,18.8890435 32.4093913,18.093913 32.904,17.0546087 C33.3986087,16.0153043 33.6709565,14.6817391 33.7210435,13.053913 C33.746087,12.3526957 33.7617391,11.7391304 33.768,11.2132174 C33.7742609,10.6873043 33.7742609,10.1613913 33.768,9.63547826 C33.7617391,9.10956522 33.746087,8.496 33.7210435,7.79478261 C33.6333913,5.17773913 32.9666087,3.3026087 31.7206957,2.1693913 C30.4747826,1.03617391 28.4493913,0.469565217 25.6445217,0.469565217 L25.6445217,0.469565217 L18.3944348,0.469565217 L18.3944348,30.5217391 L24.0292174,30.5217391 Z M25.6445217,15.4205217 L24.0292174,15.4205217 L24.0292174,5.42817391 L25.6445217,5.42817391 C27.1972174,5.42817391 28.0111304,6.11686957 28.0862609,7.49426087 C28.2114783,9.44765217 28.2114783,11.4010435 28.0862609,13.3544348 C28.0111304,14.7318261 27.1972174,15.4205217 25.6445217,15.4205217 L25.6445217,15.4205217 Z M44.1078261,31.010087 C46.8751304,31.010087 48.8786087,30.3151304 50.0806957,29.1506087 C51.2827826,27.986087 51.9276522,26.0514783 52.0153043,23.3467826 C52.1154783,20.88 52.1655652,18.2629565 52.1655652,15.4956522 C52.1655652,12.7283478 52.1154783,10.0987826 52.0153043,7.60695652 C51.9276522,4.91478261 51.2827826,2.98956522 50.0806957,1.83130435 C48.8786087,0.673043478 46.893913,0.0939130435 44.1266087,0.0939130435 C41.3718261,0.0939130435 39.3777391,0.673043478 38.1443478,1.83130435 C36.9109565,2.98956522 36.2629565,4.91478261 36.2003478,7.60695652 C36.1502609,10.0612174 36.1252174,12.6813913 36.1252174,15.4674783 C36.1252174,18.2535652 36.1502609,20.88 36.2003478,23.3467826 C36.2629565,26.0514783 36.9109565,27.986087 38.1443478,29.1506087 C39.3777391,30.3151304 41.3530435,31.010087 44.1078261,31.010087 Z M44.1266087,26.3144348 C42.6365217,26.3144348 41.8726957,25.6758261 41.8351304,24.3986087 C41.7850435,23.1213913 41.7443478,21.7189565 41.7130435,20.1913043 C41.6817391,18.6636522 41.666087,17.0921739 41.666087,15.4768696 C41.666087,13.8615652 41.6817391,12.290087 41.7130435,10.7624348 C41.7443478,9.23478261 41.7850435,7.83234783 41.8351304,6.55513043 C41.8726957,5.30295652 42.6365217,4.67686957 44.1266087,4.67686957 C45.5916522,4.67686957 46.3429565,5.30295652 46.3805217,6.55513043 C46.4431304,7.83234783 46.4869565,9.23478261 46.512,10.7624348 C46.5370435,12.290087 46.5495652,13.8615652 46.5495652,15.4768696 C46.5495652,17.0921739 46.5370435,18.6636522 46.512,20.1913043 C46.4869565,21.7189565 46.4431304,23.1213913 46.3805217,24.3986087 C46.3429565,25.6758261 45.5916522,26.3144348 44.1266087,26.3144348 Z" id="PRO" fill="#FDFBE3"></path>
            </g>
        </g>
        <polygon id="Path-2" fill="#4F7D97" points="145.180174 35.5217391 145.180174 40.2173913 151.134261 40.2173913 151.134261 35.5217391"></polygon>
    </g>
</svg>