<?xml version="1.0" encoding="UTF-8"?>
<svg width="186px" height="43px" viewBox="0 0 186 43" version="1.1" xmlns="http://www.w3.org/2000/svg" xmlns:xlink="http://www.w3.org/1999/xlink">
    <!-- Generator: Sketch 52.5 (67469) - http://www.bohemiancoding.com/sketch -->
    <title>captcha</title>
    <desc>Created with Sketch.</desc>
    <defs>
        <rect id="path-1" x="0.137136735" y="0" width="153.922691" height="13.9319728"></rect>
        <rect id="path-3" x="0.0626211111" y="-3.19744231e-14" width="153.922691" height="17.1564626"></rect>
    </defs>
    <g id="Page-1" stroke="none" stroke-width="1" fill="none" fill-rule="evenodd">
        <g id="235-d-nomedio-sponsored-captcha-tagline" transform="translate(-545.000000, -123.000000)">
            <g id="section/masthead/d/masthead-nano/seleccion/sponsor">
                <g id="captcha" transform="translate(545.000000, 120.000000)">
                    <path d="M45.74,45 L45.74,37.86 L46.93,37.86 L46.93,45 L45.74,45 Z M50.514034,39.38 L50.564034,45 L49.454034,45 L49.484034,37.86 L50.764034,37.86 L54.204034,43.4 L54.134034,37.86 L55.264034,37.86 L55.264034,45 L53.984034,45 L50.514034,39.38 Z M59.268068,45 L59.288068,38.95 L57.128068,38.95 L57.128068,37.86 L62.648068,37.86 L62.648068,38.95 L60.468068,38.95 L60.448068,45 L59.268068,45 Z M64.502102,45 L64.502102,37.86 L69.212102,37.86 L69.212102,38.93 L65.692102,38.93 L65.692102,40.8 L68.712102,40.8 L68.712102,41.84 L65.692102,41.84 L65.692102,43.93 L69.262102,43.93 L69.262102,45 L64.502102,45 Z M71.306136,45 L71.306136,37.86 L72.496136,37.86 L72.496136,43.89 L75.506136,43.89 L75.506136,45 L71.306136,45 Z M77.40017,45 L77.40017,37.86 L78.59017,37.86 L78.59017,45 L77.40017,45 Z M86.534204,44.12 C86.534204,44.22 85.764204,45.18 83.824204,45.19 C81.684204,45.19 80.834204,44.01 80.834204,41.44 C80.834204,38.87 81.684204,37.67 83.824204,37.67 C85.704204,37.67 86.544204,38.63 86.544204,40.22 L85.424204,40.22 C85.404204,39.33 84.834204,38.75 83.824204,38.75 C82.564204,38.75 82.044204,39.54 82.044204,41.44 C82.044204,43.38 82.584204,44.15 83.864204,44.15 C84.884204,44.15 85.454204,43.71 85.454204,43.51 L85.454204,42.44 L84.104204,42.44 L84.104204,41.43 L86.534204,41.43 L86.534204,44.12 Z M88.868238,45 L88.868238,37.86 L93.578238,37.86 L93.578238,38.93 L90.058238,38.93 L90.058238,40.8 L93.078238,40.8 L93.078238,41.84 L90.058238,41.84 L90.058238,43.93 L93.628238,43.93 L93.628238,45 L88.868238,45 Z M96.732272,39.38 L96.782272,45 L95.672272,45 L95.702272,37.86 L96.982272,37.86 L100.422272,43.4 L100.352272,37.86 L101.482272,37.86 L101.482272,45 L100.202272,45 L96.732272,39.38 Z M109.506306,42.45 C109.476306,44.39 108.546306,45.19 106.726306,45.19 C104.596306,45.19 103.726306,44 103.726306,41.43 C103.726306,38.87 104.596306,37.67 106.726306,37.67 C108.556306,37.67 109.496306,38.49 109.516306,40.44 L108.346306,40.44 C108.296306,39.24 107.756306,38.75 106.726306,38.75 C105.456306,38.75 104.936306,39.53 104.936306,41.43 C104.936306,43.34 105.456306,44.1 106.726306,44.1 C107.736306,44.1 108.276306,43.64 108.346306,42.45 L109.506306,42.45 Z M111.71034,45 L111.71034,37.86 L112.90034,37.86 L112.90034,45 L111.71034,45 Z M114.764374,45 L117.444374,37.86 L118.714374,37.86 L121.384374,45 L120.094374,45 L119.584374,43.5 L116.534374,43.5 L116.034374,45 L114.764374,45 Z M116.904374,42.42 L119.224374,42.42 L118.064374,38.98 L116.904374,42.42 Z M125.712442,45 L128.392442,37.86 L129.662442,37.86 L132.332442,45 L131.042442,45 L130.532442,43.5 L127.482442,43.5 L126.982442,45 L125.712442,45 Z M127.852442,42.42 L130.172442,42.42 L129.012442,38.98 L127.852442,42.42 Z M134.206476,45 L134.206476,37.84 L136.866476,37.84 C138.906476,37.84 139.776476,38.3 139.776476,40.17 C139.776476,41.44 139.376476,42.04 138.466476,42.3 L139.846476,45 L138.586476,45 L137.366476,42.46 C137.196476,42.47 137.016476,42.47 136.826476,42.47 L135.396476,42.47 L135.396476,45 L134.206476,45 Z M135.396476,38.89 L135.396476,41.42 L136.736476,41.42 C137.886476,41.42 138.556476,41.31 138.556476,40.16 C138.556476,39 137.886476,38.89 136.736476,38.89 L135.396476,38.89 Z M143.35051,45 L143.37051,38.95 L141.21051,38.95 L141.21051,37.86 L146.73051,37.86 L146.73051,38.95 L144.55051,38.95 L144.53051,45 L143.35051,45 Z M148.584544,45 L148.584544,37.86 L149.774544,37.86 L149.774544,45 L148.584544,45 Z M152.298578,45 L152.298578,37.86 L156.928578,37.86 L156.928578,38.93 L153.488578,38.93 L153.488578,41 L156.428578,41 L156.428578,42.04 L153.488578,42.04 L153.488578,45 L152.298578,45 Z M158.812612,45 L158.812612,37.86 L160.002612,37.86 L160.002612,45 L158.812612,45 Z M168.026646,42.45 C167.996646,44.39 167.066646,45.19 165.246646,45.19 C163.116646,45.19 162.246646,44 162.246646,41.43 C162.246646,38.87 163.116646,37.67 165.246646,37.67 C167.076646,37.67 168.016646,38.49 168.036646,40.44 L166.866646,40.44 C166.816646,39.24 166.276646,38.75 165.246646,38.75 C163.976646,38.75 163.456646,39.53 163.456646,41.43 C163.456646,43.34 163.976646,44.1 165.246646,44.1 C166.256646,44.1 166.796646,43.64 166.866646,42.45 L168.026646,42.45 Z M170.23068,45 L170.23068,37.86 L171.42068,37.86 L171.42068,45 L170.23068,45 Z M173.284714,45 L175.964714,37.86 L177.234714,37.86 L179.904714,45 L178.614714,45 L178.104714,43.5 L175.054714,43.5 L174.554714,45 L173.284714,45 Z M175.424714,42.42 L177.744714,42.42 L176.584714,38.98 L175.424714,42.42 Z M181.778748,45 L181.778748,37.86 L182.968748,37.86 L182.968748,43.89 L185.978748,43.89 L185.978748,45 L181.778748,45 Z" id="tagline" fill="#FF57AF"></path>
                    <rect id="line" fill="#FF57AF" transform="translate(21.333333, 41.870748) scale(1, -1) translate(-21.333333, -41.870748) " x="0" y="41" width="42.6666667" height="1.7414966"></rect>
                    <g id="logo" transform="translate(-0.000000, 0.000000)">
                        <g id="Group" transform="translate(1.741497, 17.156463)">
                            <mask id="mask-2" fill="white">
                                <use xlink:href="#path-1"></use>
                            </mask>
                            <g id="Rectangle" fill-rule="nonzero"></g>
                            <path d="M15.6546481,3.61478213 C15.6546481,11.2208862 13.4754334,13.8943188 8.8539954,13.8943188 C4.08226674,13.8943188 1.6400434,11.597426 1.6400434,7.10542736e-14 C1.6400434,-11.597426 4.08226674,-13.9319728 8.8539954,-13.9319728 C13.4378607,-13.9319728 15.6546481,-11.4468101 15.6546481,-3.53947417 L11.1459281,-3.53947417 C11.0332101,-8.43449163 10.4320474,-9.82768891 8.8539954,-9.82768891 C7.20079807,-9.82768891 6.3741994,-8.58510756 6.3741994,7.10542736e-14 C6.3741994,8.62276154 7.20079807,9.79003493 8.8539954,9.79003493 C10.4320474,9.79003493 11.0332101,8.28387571 11.1459281,3.61478213 L15.6546481,3.61478213 Z M22.7057852,13.2918551 L28.5295485,-13.3295091 L33.6018585,-13.3295091 L39.4256219,13.2918551 L34.4660299,13.2918551 L33.4891405,7.79437397 L28.5295485,7.79437397 L27.5526592,13.2918551 L22.7057852,13.2918551 Z M29.2434292,3.84070601 L32.7752599,3.84070601 L31.0093445,-5.91167494 L29.2434292,3.84070601 Z M48.0923836,13.2918551 L48.0923836,-13.4048171 L54.028865,-13.4048171 C59.9653463,-13.4048171 61.9942703,-11.4091561 61.9942703,-4.40551572 C61.9942703,2.59812466 60.002919,4.59378562 53.9912923,4.59378562 L52.676249,4.59378562 L52.676249,13.2918551 L48.0923836,13.2918551 Z M52.676249,-9.52645707 L52.676249,0.602463688 L54.6676003,0.602463688 C56.2456523,0.602463688 57.2601143,0.112961942 57.2601143,-4.4431697 C57.2601143,-8.99930134 56.2456523,-9.52645707 54.6676003,-9.52645707 L52.676249,-9.52645707 Z M73.5541274,13.2918551 L73.5541274,-9.11226328 L69.3084161,-9.11226328 L69.3084161,-13.3295091 L82.3837041,-13.3295091 L82.3837041,-9.11226328 L78.1379927,-9.11226328 L78.1379927,13.2918551 L73.5541274,13.2918551 Z M104.276045,3.61478213 C104.276045,11.2208862 102.09683,13.8943188 97.4753919,13.8943188 C92.7036632,13.8943188 90.2614399,11.597426 90.2614399,7.10542736e-14 C90.2614399,-11.597426 92.7036632,-13.9319728 97.4753919,-13.9319728 C102.059257,-13.9319728 104.276045,-11.4468101 104.276045,-3.53947417 L99.7673245,-3.53947417 C99.6546065,-8.43449163 99.0534439,-9.82768891 97.4753919,-9.82768891 C95.8221945,-9.82768891 94.9955959,-8.58510756 94.9955959,7.10542736e-14 C94.9955959,8.62276154 95.8221945,9.79003493 97.4753919,9.79003493 C99.0534439,9.79003493 99.6546065,8.28387571 99.7673245,3.61478213 L104.276045,3.61478213 Z M113.356106,13.2918551 L113.356106,-13.3295091 L117.939971,-13.3295091 L117.939971,-2.22158485 L122.2984,-2.22158485 L122.2984,-13.3295091 L126.919838,-13.3295091 L126.919838,13.2918551 L122.2984,13.2918551 L122.2984,1.99566097 L117.939971,1.99566097 L117.939971,13.2918551 L113.356106,13.2918551 Z M135.549027,13.2918551 L141.372791,-13.3295091 L146.445101,-13.3295091 L152.268864,13.2918551 L147.309272,13.2918551 L146.332383,7.79437397 L141.372791,7.79437397 L140.395901,13.2918551 L135.549027,13.2918551 Z M142.086671,3.84070601 L145.618502,3.84070601 L143.852587,-5.91167494 L142.086671,3.84070601 Z" id="CAPTCHA" fill="#FF57AF" mask="url(#mask-2)"></path>
                        </g>
                        <g id="Group-2">
                            <mask id="mask-4" fill="white">
                                <use xlink:href="#path-3"></use>
                            </mask>
                            <g id="Rectangle" fill-rule="nonzero"></g>
                            <path d="M15.555084,20.783796 C15.555084,28.3899001 13.3758693,31.0633327 8.75443133,31.0633327 C3.98270267,31.0633327 1.54047933,28.7664399 1.54047933,17.1690139 C1.54047933,5.57158791 3.98270267,3.23704112 8.75443133,3.23704112 C13.3382967,3.23704112 15.555084,5.72220384 15.555084,13.6295397 L11.046364,13.6295397 C10.933646,8.73452228 10.3324833,7.341325 8.75443133,7.341325 C7.101234,7.341325 6.27463533,8.58390636 6.27463533,17.1690139 C6.27463533,25.7917754 7.101234,26.9590488 8.75443133,26.9590488 C10.3324833,26.9590488 10.933646,25.4528896 11.046364,20.783796 L15.555084,20.783796 Z M22.6062211,30.460869 L28.4299844,3.83950481 L33.5022944,3.83950481 L39.3260578,30.460869 L34.3664658,30.460869 L33.3895764,24.9633879 L28.4299844,24.9633879 L27.4530951,30.460869 L22.6062211,30.460869 Z M29.1438651,21.0097199 L32.6756958,21.0097199 L30.9097804,11.257339 L29.1438651,21.0097199 Z M47.9928196,30.460869 L47.9928196,3.76419685 L53.9293009,3.76419685 C59.8657822,3.76419685 61.8947062,5.75985782 61.8947062,12.7634982 C61.8947062,19.7671386 59.9033549,21.7627995 53.8917282,21.7627995 L52.5766849,21.7627995 L52.5766849,30.460869 L47.9928196,30.460869 Z M52.5766849,7.64255684 L52.5766849,17.7714776 L54.5680362,17.7714776 C56.1460882,17.7714776 57.1605502,17.2819759 57.1605502,12.7258442 C57.1605502,8.16971257 56.1460882,7.64255684 54.5680362,7.64255684 L52.5766849,7.64255684 Z M73.4545633,30.460869 L73.4545633,8.05675063 L69.208852,8.05675063 L69.208852,3.83950481 L82.28414,3.83950481 L82.28414,8.05675063 L78.0384287,8.05675063 L78.0384287,30.460869 L73.4545633,30.460869 Z M104.17648,20.783796 C104.17648,28.3899001 101.997266,31.0633327 97.3758278,31.0633327 C92.6040991,31.0633327 90.1618758,28.7664399 90.1618758,17.1690139 C90.1618758,5.57158791 92.6040991,3.23704112 97.3758278,3.23704112 C101.959693,3.23704112 104.17648,5.72220384 104.17648,13.6295397 L99.6677605,13.6295397 C99.5550425,8.73452228 98.9538798,7.341325 97.3758278,7.341325 C95.7226305,7.341325 94.8960318,8.58390636 94.8960318,17.1690139 C94.8960318,25.7917754 95.7226305,26.9590488 97.3758278,26.9590488 C98.9538798,26.9590488 99.5550425,25.4528896 99.6677605,20.783796 L104.17648,20.783796 Z M113.256542,30.460869 L113.256542,3.83950481 L117.840407,3.83950481 L117.840407,14.9474291 L122.198836,14.9474291 L122.198836,3.83950481 L126.820274,3.83950481 L126.820274,30.460869 L122.198836,30.460869 L122.198836,19.1646749 L117.840407,19.1646749 L117.840407,30.460869 L113.256542,30.460869 Z M135.449463,30.460869 L141.273227,3.83950481 L146.345537,3.83950481 L152.1693,30.460869 L147.209708,30.460869 L146.232819,24.9633879 L141.273227,24.9633879 L140.296337,30.460869 L135.449463,30.460869 Z M141.987107,21.0097199 L145.518938,21.0097199 L143.753023,11.257339 L141.987107,21.0097199 Z" id="CAPTCHA" fill="#FF57AF" mask="url(#mask-4)"></path>
                        </g>
                    </g>
                </g>
            </g>
        </g>
    </g>
</svg>