<svg xmlns="http://www.w3.org/2000/svg" width="299" height="48" viewBox="0 0 299 48">
    <path fill="#FFE77C" fill-rule="evenodd" d="M57.672 29.577l-6.507 9.613h-2.382l7.637-11.018-7.607-11.08h2.322l6.598 9.676 6.568-9.676h2.352l-7.698 11.049L66.53 39.19h-2.352l-6.506-9.613zm23.063 9.581l-.306-2.278c-1.069 1.436-3.024 2.653-6.018 2.653-4.062 0-5.65-1.904-5.65-5.119 0-4.088 2.687-5.337 6.903-5.337 2.23 0 3.757.156 4.582.281-.061-3.901-.489-5.4-4.368-5.4-3.971 0-4.613 2.123-4.613 3.59h-1.863c0-1.997.641-5.337 6.384-5.337 6.69 0 6.476 3.59 6.476 8.708v4.057l.336 4.182h-1.863zm-5.957-1.435c3.482 0 5.468-2.154 5.468-3.683v-2.934a32.389 32.389 0 0 0-4.124-.25c-3.452 0-5.284.843-5.284 3.465 0 1.904.885 3.402 3.94 3.402zm19.061 1.529h-1.344c-4.674 0-5.04-2.809-5.04-6.43v-8.489h-2.077v-1.841h2.077V17.56l2.016-.406v5.337h4.276v1.841h-4.276v8.427c0 2.778.336 4.557 3.146 4.557h1.222v1.935zm14.021-.094l-.305-2.278c-1.07 1.436-3.025 2.653-6.018 2.653-4.063 0-5.651-1.904-5.651-5.119 0-4.088 2.688-5.337 6.903-5.337 2.23 0 3.758.156 4.582.281-.06-3.901-.488-5.4-4.368-5.4-3.97 0-4.612 2.123-4.612 3.59h-1.864c0-1.997.642-5.337 6.384-5.337 6.69 0 6.476 3.59 6.476 8.708v4.057l.336 4.182h-1.863zm-5.957-1.435c3.483 0 5.468-2.154 5.468-3.683v-2.934a32.389 32.389 0 0 0-4.124-.25c-3.451 0-5.284.843-5.284 3.465 0 1.904.886 3.402 3.94 3.402zm12.402 1.467V15.72h1.955V31.76l7.576-9.27h2.321l-5.223 6.243 6.048 10.456h-2.29l-5.041-8.895-3.39 4.057v4.838h-1.956zm26.332-.032l-.306-2.278c-1.069 1.436-3.024 2.653-6.018 2.653-4.062 0-5.65-1.904-5.65-5.119 0-4.088 2.687-5.337 6.903-5.337 2.23 0 3.757.156 4.582.281-.061-3.901-.489-5.4-4.368-5.4-3.971 0-4.613 2.123-4.613 3.59h-1.863c0-1.997.641-5.337 6.384-5.337 6.69 0 6.476 3.59 6.476 8.708v4.057l.336 4.182h-1.863zm-5.957-1.435c3.482 0 5.468-2.154 5.468-3.683v-2.934a32.389 32.389 0 0 0-4.124-.25c-3.452 0-5.285.843-5.285 3.465 0 1.904.886 3.402 3.941 3.402zm34.976-4.682c0 4.463-2.963 6.773-8.767 6.742-5.743-.032-8.706-2.59-8.706-7.897h4.246c0 2.778 1.589 4.182 4.643 4.214 2.597.03 4.185-.874 4.185-2.903 0-4.9-12.952-1.716-12.86-10.3.03-4.088 2.596-6.74 8.37-6.71 6.292.032 8.461 2.747 8.461 7.49h-4.246c0-1.903-.672-3.713-4.185-3.744-3.085-.032-4.062 1.248-4.062 2.84 0 4.869 12.92 1.654 12.92 10.268zm18.206.812c-.123 2.528-1.589 5.805-7.76 5.805-5.895 0-8.002-3.246-8.002-8.927 0-5.649 2.107-8.957 8.003-8.957 5.743 0 7.82 2.934 7.82 9.987h-11.425c.153 3.34 1.192 4.65 3.605 4.65 2.688 0 3.482-1.497 3.513-2.558h4.246zm-7.79-9.02c-2.2 0-3.268 1.154-3.543 4.026h6.995c-.397-3.059-1.466-4.026-3.452-4.026zm11.089 14.357l.03-23.564h4.246V39.19h-4.276zm23.337-5.337c-.122 2.528-1.588 5.805-7.759 5.805-5.895 0-8.003-3.246-8.003-8.927 0-5.649 2.108-8.957 8.003-8.957 5.743 0 7.82 2.934 7.82 9.987h-11.424c.153 3.34 1.191 4.65 3.604 4.65 2.689 0 3.483-1.497 3.513-2.558h4.246zm-7.79-9.02c-2.198 0-3.268 1.154-3.543 4.026h6.996c-.397-3.059-1.467-4.026-3.452-4.026zm25.904 8.27c-.183 3.995-2.107 6.555-7.606 6.555-5.926 0-7.942-3.246-7.942-8.927 0-5.649 2.016-8.957 7.942-8.957 5.53 0 7.454 2.653 7.606 7.022h-4.184c-.092-2.528-1.283-3.62-3.422-3.62-2.627 0-3.574 1.717-3.574 5.555 0 3.902.947 5.525 3.574 5.525 2.077 0 3.3-.968 3.391-3.153h4.215zm17.931 0c-.183 3.995-2.107 6.555-7.606 6.555-5.926 0-7.942-3.246-7.942-8.927 0-5.649 2.016-8.957 7.942-8.957 5.53 0 7.454 2.653 7.606 7.022h-4.185c-.091-2.528-1.283-3.62-3.42-3.62-2.628 0-3.575 1.717-3.575 5.555 0 3.902.947 5.525 3.574 5.525 2.077 0 3.3-.968 3.39-3.153h4.216zm3.086-13.514v-4.307h4.276v4.307h-4.276zm0 19.6V22.243h4.276V39.19h-4.276zm13.684-19.381l2.627-5.025h4.338l-3.207 5.025h-3.758zm9.959 10.923c0 5.712-2.016 8.927-8.065 8.927-6.017 0-8.033-3.215-8.033-8.927 0-5.68 2.016-8.957 8.033-8.957 6.049-.031 8.065 3.277 8.065 8.957zm-11.73 0c0 3.87.916 5.494 3.665 5.494 2.78 0 3.696-1.623 3.696-5.494 0-3.838-.916-5.524-3.696-5.524-2.749 0-3.665 1.686-3.665 5.524zm-240.49 6.067v-2.966a8.8 8.8 0 0 0-6.526-15.76v-2.534c.412-.046.832-.07 1.257-.07 6.249 0 11.314 5.066 11.314 11.315 0 4.346-2.45 8.12-6.045 10.015zm-2.515.962c-.881.22-1.804.337-2.754.337-5.973 0-10.864-4.628-11.285-10.493h2.523a8.801 8.801 0 0 0 11.516 7.54v2.616zm-6.526-21.648v2.718a8.814 8.814 0 0 0-4.865 6.26H8.594a11.329 11.329 0 0 1 7.417-8.978zm-2.828 26.106C7.195 39.655 3 33.708 3 26.783 3 17.513 10.514 10 19.783 10c1.052 0 2.081.097 3.08.282v2.566a14.32 14.32 0 0 0-3.08-.334c-7.88 0-14.269 6.389-14.269 14.269 0 5.514 3.129 10.298 7.707 12.674l-.038-.016v2.777zm2.514.847V40.46l-.028-.011a14.27 14.27 0 0 0 4.114.601c7.88 0 14.268-6.388 14.268-14.268a14.639 14.639 0 0 0 0 .003h2.515c-.002 9.267-7.515 16.78-16.783 16.78-1.41 0-2.778-.174-4.086-.501zm7.317-32.754c6.915 1.348 12.312 6.944 13.365 13.96h-2.547a10.942 10.942 0 0 1 .174 1.37c-.428-5.4-3.862-9.955-8.629-11.988v-2.697a24.301 24.301 0 0 0-1.257-.39 23.877 23.877 0 0 0-1.106-.255zM280.6 39.19V26.768l-.305-4.526h3.665l.49 2.466c.64-.905 2.412-2.715 5.833-2.715 3.972 0 5.499 2.153 5.499 7.77v9.427h-4.277v-9.457c0-2.56-.672-3.84-2.871-3.84-2.016 0-3.207 1.405-3.757 2.31V39.19H280.6zM19.783 32.44a5.657 5.657 0 1 1 0-11.314 5.657 5.657 0 0 1 0 11.314z"/>
</svg>
