<svg xmlns="http://www.w3.org/2000/svg" width="196" height="24" viewBox="0 0 196 24">
    <g fill="none" fill-rule="evenodd">
        <g fill="#FCE903" fill-rule="nonzero">
            <g>
                <g>
                    <g>
                        <path d="M4.62.878c.54 0 1.129.42 1.31.935l1.766 5.04c.18.515.485.518.678.009l1.91-5.056c.193-.51.79-.928 1.33-.928h2.883c.54 0 .824.417.632.928l-3.472 9.23c-.192.51-.205 1.35-.029 1.866l3.472 10.16c.176.515-.12.938-.66.938h-2.956c-.54 0-1.118-.425-1.285-.944l-1.856-5.755c-.168-.519-.44-.519-.606 0l-1.835 5.754c-.166.52-.743.945-1.282.945H1.65c-.538 0-.834-.42-.653-.936l3.039-8.712 1.657-.12-4.24-1.093H4.46l.057-.163c.179-.515.17-1.354-.022-1.864L3.196 7.67l1.484-.108L0 6.357h2.702L.99 1.806c-.191-.51.093-.928.632-.928H4.62zm22.698 0c.534 0 1.075.434 1.201.964l5.047 21.194c.124.53-.21.964-.743.964h-3.152c-.534 0-1.063-.437-1.177-.97l-.221-1.043 1.525-.112-3.657-.95h1.906l-.19-.9c-.114-.535-.644-.971-1.178-.971h-1.394c-.533 0-1.058.437-1.166.972l-.602 3.001c-.108.535-.632.973-1.167.973h-3.18c-.534 0-.868-.433-.74-.964L22.312 6.77l1.746-.128-4.078-1.06h2.616l.775-3.247 1.623-.118-5.152-1.34h7.475zm21.078 0c.534 0 .97.446.97.993v1.508c0 .546-.436.993-.97.993h-1.73c-.532 0-.969.447-.969.993v17.642c0 .546-.435.993-.969.993h-3.216c-.533 0-.97-.446-.97-.993v-6.245l1.647-.12-3.751-.979h2.105V9.597l1.647-.12-4.664-1.217h3.017V5.365c0-.545-.435-.993-.969-.993h-1.8c-.533 0-.97-.446-.97-.993V1.871c0-.546.436-.993.97-.993h10.622zm12.806 0c.533 0 1.074.434 1.2.964l5.047 21.194c.125.53-.209.964-.742.964h-3.153c-.533 0-1.063-.437-1.177-.97l-.221-1.043 1.526-.112-3.658-.95h1.906l-.19-.9c-.113-.535-.644-.971-1.177-.971h-1.395c-.533 0-1.058.437-1.166.972l-.602 3.001c-.108.535-.632.973-1.167.973h-3.18c-.533 0-.867-.433-.74-.964L56.196 6.77l1.746-.128-4.078-1.06h2.616l.774-3.247 1.624-.118-5.152-1.34h7.476zm26.238 0c.543 0 .77.39.504.865l-4.331 7.736c-.267.476-.312 1.277-.103 1.78l4.926 11.823c.21.506-.064.918-.607.918h-3.483c-.543 0-1.143-.418-1.334-.93l-.686-1.847 1.747-.126-4.271-1.092h2.072l-2.099-5.647c-.19-.511-.524-.521-.743-.021l-.16.366c-.217.5-.396 1.356-.396 1.901v6.402c0 .546-.444.993-.988.993h-3.28c-.543 0-.989-.446-.989-.993V10.912l1.559-.112-4.272-1.092h2.713V2.985l1.61-.115-4.433-1.133h2.851c.07-.479.466-.857.96-.857h3.28c.544 0 .99.446.99.993V8.711c.011.496.195.52.417.041l3.238-6.974c.23-.494.862-.9 1.407-.9h3.901zm13.195 0c.534 0 1.075.434 1.201.964l5.047 21.194c.125.53-.21.964-.743.964h-3.152c-.534 0-1.063-.437-1.177-.97l-.221-1.043 1.525-.112-3.658-.95h1.907l-.191-.9c-.113-.535-.643-.971-1.177-.971h-1.393c-.533 0-1.059.437-1.166.972l-.603 3.001c-.107.535-.631.973-1.166.973h-3.18c-.534 0-.868-.433-.741-.964L95.629 6.77l1.746-.128-4.077-1.06h2.615l.775-3.247 1.624-.118L93.16.878h7.475zm31.84 0c.533 0 1.074.434 1.2.964l5.047 21.194c.125.53-.208.964-.743.964h-3.152c-.533 0-1.063-.437-1.177-.97l-.221-1.043 1.526-.112-3.658-.95h1.906l-.19-.9c-.114-.535-.644-.971-1.177-.971h-1.394c-.534 0-1.059.437-1.167.972l-.602 3.001c-.108.535-.632.973-1.166.973h-3.18c-.534 0-.868-.433-.741-.964l3.882-16.265 1.746-.128-4.076-1.06h2.615l.775-3.247 1.623-.118L125 .878h7.475zm42.109 0c.533 0 .969.446.969.993v1.508c0 .546-.436.993-.97.993h-1.729c-.532 0-.969.447-.969.993v17.642c0 .546-.436.993-.969.993h-3.217c-.532 0-.969-.446-.969-.993v-6.245l1.647-.12-3.752-.979h2.106V9.597l1.647-.12-4.664-1.217h3.017V5.365c0-.545-.435-.993-.969-.993h-1.8c-.533 0-.97-.446-.97-.993V1.871c0-.546.436-.993.97-.993h10.622zM188.427 0C195.867-.001 196 6.812 196 7.22v7.624c0 .5-.016 1.292-.037 1.84l-.01.216c-.011.211-.057.856-.183 1.498-.153.783-.414 1.525-.783 2.226-.369.702-.838 1.3-1.407 1.79-.57.493-1.291.88-2.164 1.163-.87.281-1.867.423-2.988.423-1.11 0-2.102-.14-2.974-.417-.871-.278-1.59-.655-2.155-1.13-.565-.474-1.032-1.057-1.4-1.745-.37-.689-.633-1.422-.79-2.202l-.016-.076c-.145-.753-.178-1.486-.178-1.486v-.011l-.001-.005 1.8-.13-4.532-1.163h2.696l-.005-.326-.002-.294V7.198c.005-.294.075-2.035 1-3.731l1.948-.141-4.531-1.163h3.51l.068-.072C183.98.915 185.71 0 188.427 0zm-41.021.293c.544 0 .989.45.989.998l.001 13.563.003 1.027c0 .154.004.432.01.685l.005.12c.012.351.034.768.068 1.249l.008.109c.04.48.105.82.194 1.021.097.215.23.448.399.698.17.25.388.413.658.49.27.079.598.117.984.117.385 0 .713-.038.983-.117.27-.077.49-.238.658-.484.17-.246.302-.477.398-.692.097-.215.164-.588.204-1.118l.011-.164c.03-.432.049-.805.059-1.12l.003-.124c.008-.347.013-.871.013-1.574V7.35l1.595-.114-3.995-1.026h2.4V1.291c0-.549.445-.998.99-.998h3.286c.544 0 .989.45.989.998v12.76c-.001.502-.007 1.206-.015 1.708l-.003.2c-.004.132-.017.489-.054.961-.049.603-.14 1.227-.275 1.873-.135.646-.317 1.217-.55 1.712-.23.496-.54.969-.925 1.42-.386.453-.842.826-1.367 1.118-.526.292-1.16.526-1.903.698-.744.172-1.576.259-2.502.259-.926 0-1.76-.087-2.503-.259-.743-.172-1.374-.405-1.895-.698-.521-.293-.975-.666-1.36-1.118-.386-.451-.694-.924-.926-1.42-.115-.245-.211-.52-.3-.805l1.545-.111-3.874-.995h2.035c-.116-.575-.202-1.134-.245-1.674l-.017-.221c-.034-.48-.038-.796-.038-.796l-.006-.382c-.006-.47-.01-1.043-.011-1.47v-3.513l1.682-.121-4.603-1.18h2.92V1.29c0-.549.446-.998.99-.998h3.287zm41.078 3.22c-.487 0-.9.103-1.238.312-.338.208-.587.492-.745.853-.16.362-.271.719-.336 1.071l-.065.353-.007.201c-.013.42-.023 1.013-.024 1.47v8.06c0 .521.095 1.353.214 1.885l.018.077c.056.219.653 2.4 2.182 2.4 1.62 0 2.2-2.418 2.2-2.418.127-.528.231-1.403.231-1.944V8.027l1.873-.13-4.48-1.1h2.525c-.037-.292-.083-.578-.135-.806l-.014-.06c-.045-.178-.643-2.419-2.199-2.419zM26.161 8.315l-1.028 6.778c-.084.552.28 1.004.808 1.004h.69c.53 0 .896-.452.815-1.005l-.986-6.776c-.08-.552-.215-.553-.299-.001zM60.05 8.29l-1.033 6.804c-.083.552.28 1.004.809 1.004h.69c.529 0 .896-.452.815-1.005l-.986-6.776-.012-.076c-.08-.467-.203-.451-.283.049zm39.142 0l-1.033 6.804c-.084.552.28 1.004.808 1.004h.69c.53 0 .896-.452.816-1.005l-.987-6.776-.012-.076c-.08-.467-.202-.451-.282.049zm31.839 0l-1.033 6.804c-.084.552.28 1.004.809 1.004h.69c.528 0 .895-.452.815-1.005l-.986-6.776-.013-.076c-.08-.467-.202-.451-.282.049z" transform="translate(-82.000000, -84.000000) translate(0.000000, 56.000000) translate(82.000000, 28.000000)"/>
                    </g>
                </g>
            </g>
        </g>
    </g>
</svg>
