<svg xmlns="http://www.w3.org/2000/svg" width="100" height="24" viewBox="0 0 100 24">
    <path fill="#008C2E" fill-rule="nonzero" d="M55.935.237c.022.157.044.315.062.47.076.93.15 1.856.233 2.785.063.766.119 1.532.187 2.298.063.76.13 1.52.192 2.282.021.296.046.592.063.893 1.893-.141 3.301.552 4.14 2.29.295-.365.66-.63 1.086-.81.788-.339 1.596-.41 2.402-.05.647.289 1.08.799 1.385 1.416.327.663.527 1.372.558 2.101.046.996.024 1.988.036 2.986.002.105 0 .212 0 .324h-2.677v-.168c0-.95.002-1.892-.002-2.842 0-.279-.05-.554-.192-.803-.187-.311-.448-.491-.815-.49a.845.845 0 0 0-.798.53 1.57 1.57 0 0 0-.15.634c-.02 1.204-.009 2.405-.009 3.61v.196h-2.545c-.014-.179-.024-.356-.036-.53-.062-1.064-.111-2.133-.171-3.196-.02-.29 0-.594-.065-.87-.153-.632-.548-1.077-1.192-1.25-.384-.105-.66.105-.684.501-.006.144.016.29.03.431.085.772.195 1.542.253 2.314.06.825.092 1.663.08 2.49-.02 1.224-.126 2.442-.49 3.622-.185.602-.432 1.167-.834 1.664-.383.465-.86.783-1.461.904-.021.002-.034.016-.054.02h-.527a2.382 2.382 0 0 1-1.162-.634c-.447-.45-.723-1-.926-1.59a8.416 8.416 0 0 1-.407-2.114c-.06-.72-.06-1.44.007-2.16.186-2.106.701-4.124 1.81-5.948.266-.431.617-.813.924-1.211.063-.078.1-.144.087-.254-.061-.655-.105-1.312-.154-1.967-.044-.555-.095-1.11-.14-1.665-.043-.527-.08-1.053-.12-1.579-.056-.678-.107-1.357-.164-2.038-.032-.365-.064-.73-.09-1.092L53.496.32c.316-.008.618-.013.916-.024.464-.015.923-.034 1.384-.052.046-.007.09-.007.138-.007zM54.913 16.9c-.025-.444-.037-.882-.09-1.324a3.539 3.539 0 0 0-.2-.775c-.044-.131-.163-.127-.235-.01-.056.086-.099.18-.127.275-.189.572-.243 1.165-.285 1.758a11.44 11.44 0 0 0 .026 2.27c.034.276.118.539.192.808.015.05.082.112.124.11.059-.002.126-.056.15-.105.063-.133.125-.273.16-.41.215-.846.272-1.715.285-2.597zM.295 8.23c.063-.29.105-.587.19-.87.448-1.493 1.43-2.532 2.826-3.197a6.29 6.29 0 0 1 2.95-.603 5.596 5.596 0 0 1 1.932.399c.071.028.122.054.121.149-.003.94-.002 1.884-.003 2.827 0 .014-.005.027-.011.063-.05-.02-.099-.033-.143-.051C7.53 6.69 6.88 6.537 6.2 6.56c-1.288.041-2.423.747-2.834 1.96-.219.645-.192 1.29.007 1.955l.136-.09c.56-.382 1.157-.652 1.852-.66.802-.008 1.44.32 1.944.922.43.512.66 1.113.648 1.778-.017.95-.485 1.63-1.345 2.032a3.49 3.49 0 0 1-1.355.325c-.273.013-.546.001-.852.001.212.36.478.6.825.743.511.22 1.042.224 1.578.13.715-.118 1.365-.402 1.985-.77.085-.049.11-.104.094-.192a14.665 14.665 0 0 1-.212-2.565c.009-1.194.161-2.365.63-3.476.292-.692.685-1.313 1.299-1.772.392-.293.826-.47 1.328-.447.53.022.937.273 1.265.666.387.466.567 1.02.657 1.608.163 1.045.043 2.076-.19 3.098-.249 1.102-.632 2.155-1.087 3.182-.026.06-.056.107-.088.165-.1.178-.065.316.125.4.118.05.25.084.377.09.632.032 1.2-.147 1.703-.528.011-.01.025-.015.052-.022.003.054.008.098.008.144 0 .662 0 1.33.002 1.99.001.093-.021.15-.104.2-1.18.707-2.4.824-3.655.215-.239-.114-.447-.294-.674-.445-.305.171-.619.36-.946.523a7.48 7.48 0 0 1-2.494.743c-1.032.12-2.037.028-2.994-.38-1.447-.624-2.288-1.716-2.492-3.282a5.832 5.832 0 0 1 .043-1.65.292.292 0 0 0-.023-.162C.954 12.103.586 11.186.397 10.2.36 10.005.162 9.282.295 8.23zm11.5 2.583c-.02-.144-.046-.38-.095-.614-.029-.14-.069-.308-.243-.32-.167-.013-.245.138-.307.267-.37.768-.456 1.578-.335 2.413.016.106.06.212.113.31.08.148.212.169.33.042a1.17 1.17 0 0 0 .181-.276c.26-.546.325-1.13.357-1.822zM5.028 13a.605.605 0 0 0 .604-.59c0-.318-.285-.6-.603-.598a.61.61 0 0 0-.595.603.604.604 0 0 0 .594.585zm31.086-.723c.28-.614 1.13-.924 1.711-.846.067.01.12.02.12.107-.002.76 0 1.52 0 2.285-.158.028-.31.053-.457.092-.59.155-.88.536-.88 1.141v2.395h-2.119V17.3c0-.682-.014-1.37.003-2.053.018-.705-.428-1.018-.998-1.1-.131-.022-.266-.022-.405-.033-.023.163-.035.317-.068.466-.183.785-.634 1.392-1.244 1.892a3.896 3.896 0 0 1-2.488.922 4.114 4.114 0 0 1-2.182-.583c-.157-.093-.26-.081-.41.016-1.051.657-2.163 1.184-3.384 1.455-1.379.31-2.725.252-4.01-.384-.955-.474-1.69-1.187-2.26-2.076-.63-.985-.992-2.059-1.136-3.219-.185-1.482-.022-2.923.585-4.297C17.407 6.234 19 4.957 21.2 4.421c1.11-.272 2.236-.296 3.368-.18l.508.054V6.96c-.223-.044-.443-.092-.663-.128-.978-.166-1.952-.195-2.913.09-1.379.411-2.31 1.304-2.749 2.658-.532 1.644-.335 3.218.622 4.673.525.794 1.265 1.31 2.229 1.462.688.107 1.345-.022 1.985-.268.618-.232 1.175-.574 1.699-.979.036-.023.064-.103.057-.148-.087-.625-.042-1.233.344-1.76.425-.585.985-.928 1.736-.876.511.035.871.418.888.933.009.317-.004.643.03.96.028.266.086.53.177.784.3.825 1.12.868 1.663.538.142-.091.275-.22.366-.36.199-.312.08-.604-.267-.717-.21-.069-.427-.119-.63-.202-.457-.19-.845-.464-1.125-.87-.35-.51-.42-1.08-.296-1.673a2.87 2.87 0 0 1 1.23-1.821c.787-.537 1.748-.497 2.52.088.535.405.905.941 1.214 1.524.048.091.098.127.207.131.872.034 1.681.242 2.332.865.136.13.253.275.38.415zm-4.964-.85a.418.418 0 0 0-.426-.427.438.438 0 0 0-.443.436.44.44 0 0 0 .436.43.422.422 0 0 0 .433-.438zm7.523 2.45v-2.32h.788l.338-5.237h2.322l-.43 5.518c.23 0 .451.005.672-.006.038-.001.083-.064.107-.11.352-.677.759-1.317 1.299-1.866.588-.598 1.266-1.048 2.112-1.208 1.341-.25 2.682.523 2.96 1.857.15.726-.041 1.388-.434 2.002-.464.722-1.117 1.244-1.849 1.673-.323.19-.667.345-1.001.516-.033.02-.066.033-.115.061.335.445.75.74 1.309.804.649.069 1.225-.151 1.778-.455.234-.13.458-.275.705-.43v.152c0 .782-.004 1.558.003 2.338 0 .133-.05.212-.144.292-.542.45-1.178.69-1.869.78a4.344 4.344 0 0 1-2.639-.454c-.976-.52-1.609-1.326-2.002-2.34a3.022 3.022 0 0 0-.325-.617.656.656 0 0 0-.32-.232c-.224-.082-.393.056-.393.29v2.838h-2.32v-3.792a7.348 7.348 0 0 0-.552-.053zm7.57-2.562c.005-.297-.165-.42-.437-.29-.14.064-.274.164-.382.274-.255.262-.446.568-.454.949-.005.25.157.36.392.28.417-.139.876-.771.882-1.213zm41.594 3.056c.2-.076.39-.143.57-.216.776-.336 1.485-.784 2.195-1.222 1.171-.721 2.318-1.48 3.553-2.09.675-.336 1.366-.638 2.117-.75.703-.105 1.413-.087 2.08.187.923.38 1.436 1.106 1.583 2.067.194 1.333-.192 2.532-.984 3.6-1.001 1.347-2.364 2.122-4.005 2.435-.36.065-.72.103-1.094.149-.005-.084-.01-.13-.01-.177 0-.786.002-1.58-.001-2.366-.002-.107.035-.149.145-.186.868-.264 1.703-.602 2.438-1.147.233-.173.477-.346.575-.65.171-.539-.084-1.115-.575-1.263a1.024 1.024 0 0 0-.78.064c-.386.188-.759.397-1.129.617-1.742 1.06-3.48 2.13-5.217 3.197-.887.54-1.85.788-2.885.724a1.968 1.968 0 0 1-.944-.293.19.19 0 0 0-.147-.008c-.794.571-1.692.889-2.647 1.08a7.386 7.386 0 0 1-1.673.146c-.876-.036-1.73-.19-2.45-.742-.249-.194-.454-.447-.701-.697-.107.068-.243.161-.382.26-.743.509-1.476 1.017-2.215 1.525-.07.047-.103.091-.093.186.101.982.053 1.949-.324 2.876-.405.995-1.119 1.63-2.2 1.778-.986.137-1.912-.014-2.67-.718a2.422 2.422 0 0 1-.767-1.587c-.122-1.34.449-2.392 1.425-3.263a5.287 5.287 0 0 1 1.62-.964c.1-.038.121-.086.117-.18-.006-.228-.002-.447-.002-.7-.173.108-.32.21-.483.3-.645.372-1.336.632-2.076.71-.697.071-1.374.006-1.965-.422-.497-.36-.752-.867-.904-1.446-.28-1.089.021-2.058.615-2.967.653-.998 1.555-1.71 2.61-2.247 1.13-.573 2.329-.89 3.588-1.023.258-.027.518-.047.788-.072v2.637c-.352.043-.702.073-1.043.127-1.017.158-2.002.42-2.857 1.027-.433.307-.786.679-.88 1.218-.02.148-.017.308.005.454.025.192.091.234.282.215.328-.023.61-.18.872-.36a4.386 4.386 0 0 0 1.683-2.076c.028-.07.055-.118.15-.117.781.004 1.554.004 2.334.004.022 0 .038.002.068.006v3.459c.532-.19 1.038-.365 1.543-.542-.103-.319-.198-.62-.284-.925a8.612 8.612 0 0 1-.319-2.947c.066-1.058.326-2.066.894-2.979.332-.539.755-.994 1.335-1.29.63-.323 1.272-.26 1.91-.023 1.068.394 1.64 1.186 1.81 2.284.151.97-.02 1.912-.314 2.834a10.352 10.352 0 0 1-1.556 3.025c-.054.068-.036.11.012.175.27.316.616.486 1.018.56.404.07.794-.005 1.176-.148.09-.032.11-.068.08-.168-.219-.648-.36-1.31-.358-1.99.003-.964.259-1.843.97-2.542a3.068 3.068 0 0 1 1.768-.849c.823-.116 1.594.026 2.279.502.673.466 1.016 1.126 1.078 1.934.045.627-.084 1.231-.312 1.814-.015.037-.023.073-.038.105-.004.014-.002.02-.002.07zm-8.39-3.948c0-.038.006-.078 0-.114-.038-.22-.055-.447-.118-.657-.07-.215-.234-.23-.38-.053a1.15 1.15 0 0 0-.157.257c-.29.635-.362 1.306-.32 1.993.015.158.068.318.139.463.063.144.192.153.31.04.064-.07.132-.152.176-.244.256-.53.344-1.098.35-1.685zm6.474 2.803c-.002-.324-.061-.557-.196-.76-.234-.349-.629-.349-.87-.002-.254.37-.26.977-.008 1.35.248.377.671.365.906-.021.118-.2.172-.414.168-.567zm-14.276 6.999c0 .026-.004.06 0 .085.032.235.144.433.377.523.184.068.39.006.533-.154a.728.728 0 0 0 .094-.81c-.173-.332-.555-.394-.82-.125-.136.13-.184.293-.184.48zm22.912-12.85c-1.725 1.099-3.432 2.19-5.16 3.29L87.76 8.665c1.816-1.17 3.63-2.335 5.447-3.506.453.739.895 1.469 1.348 2.216z"/>
</svg>
