<?xml version="1.0" encoding="UTF-8"?>
<svg width="429px" height="82px" viewBox="0 0 429 82" version="1.1" xmlns="http://www.w3.org/2000/svg" xmlns:xlink="http://www.w3.org/1999/xlink">
    <title>_TEMPLATE/Webedia/logo-edge_light</title>
    <g id="_TEMPLATE/Webedia/logo-edge_light" stroke="none" stroke-width="1" fill="none" fill-rule="evenodd">
        <g id="Webedia---Main-Logo-White" transform="translate(0.000000, 5.000000)" fill="#FFFFFF" fill-rule="nonzero">
            <path d="M103.544884,58.4704383 C107.673988,58.4704383 111.204283,56.8572277 113.219679,54.6407388 L125.316524,61.5940788 C120.37858,68.4491067 112.915805,71.9794014 103.339322,71.9794014 C86.1034406,71.9794014 75.4187133,60.3875223 75.4187133,45.3636606 C75.4187133,30.3397989 86.3045333,18.7702636 102.231078,18.7702636 C116.951066,18.7702636 127.837148,30.1610498 127.837148,45.3815356 C127.845468,47.4138515 127.643294,49.4415798 127.233608,51.4321925 L91.4480386,51.4321925 C93.360654,56.6561349 97.9991931,58.4704383 103.544884,58.4704383 Z M112.817493,40.1218433 C111.204283,34.2767478 106.668524,32.1764459 102.132766,32.1764459 C96.3859825,32.1764459 92.556283,35.0006817 91.1441652,40.1397183 L112.817493,40.1218433 Z" id="Shape"></path>
            <path d="M185.550501,45.3636606 C185.550501,60.3875223 174.664681,71.9794014 161.455123,71.9794014 C154.702876,71.9794014 149.764932,69.6601318 146.43573,65.8304324 L146.43573,70.5672835 L131.318025,70.5672835 L131.318025,0.00160825328 L146.43573,0.00160825328 L146.43573,24.9013576 C149.764932,21.0716582 154.702876,18.7702636 161.455123,18.7702636 C174.664681,18.7702636 185.550501,30.3442677 185.550501,45.3636606 Z M170.428328,45.3636606 C170.428328,37.8025738 165.387603,33.0701914 158.434263,33.0701914 C151.480923,33.0701914 146.43573,37.8070425 146.43573,45.3681294 C146.43573,52.9292162 151.489861,57.6481924 158.434263,57.6481924 C165.378666,57.6481924 170.428328,52.9247475 170.428328,45.3636606 Z" id="Shape"></path>
            <path d="M215.415007,58.4704383 C219.54858,58.4704383 223.074406,56.8572277 225.089802,54.6407388 L237.186647,61.5940788 C232.271047,68.4491067 224.790397,71.9794014 215.213914,71.9794014 C197.973564,71.9794014 187.288836,60.3875223 187.288836,45.3636606 C187.288836,30.3397989 198.174656,18.7702636 214.101201,18.7702636 C228.821189,18.7702636 239.707271,30.1610498 239.707271,45.3815356 C239.715591,47.4138515 239.513417,49.4415798 239.103731,51.4321925 L203.327099,51.4321925 C205.230777,56.6561349 209.869316,58.4704383 215.415007,58.4704383 Z M224.687616,40.1218433 C223.074406,34.2767478 218.520773,32.1764459 214.002889,32.1764459 C208.242699,32.1764459 204.426406,34.9828068 203.014288,40.1218433 L224.687616,40.1218433 Z" id="Shape"></path>
            <path d="M295.682289,0.00160825328 L295.682289,70.5672835 L280.560116,70.5672835 L280.560116,65.8304324 C277.235383,69.6601318 272.29297,71.9794014 265.540723,71.9794014 C252.335633,71.9794014 241.449813,60.3875223 241.449813,45.3636606 C241.449813,30.3397989 252.335633,18.7702636 265.540723,18.7702636 C272.29297,18.7702636 277.235383,21.0895331 280.560116,24.9192325 L280.560116,0.00160825328 L295.682289,0.00160825328 Z M280.560116,45.3636606 C280.560116,37.8025738 275.519391,33.0701914 268.57052,33.0701914 C261.621649,33.0701914 256.571987,37.8070425 256.571987,45.3681294 C256.571987,52.9292162 261.608243,57.6481924 268.57052,57.6481924 C275.532797,57.6481924 280.560116,52.9247475 280.560116,45.3636606 Z" id="Shape"></path>
            <polygon id="Path" points="300.915169 20.1645065 316.032874 20.1645065 316.032874 70.5672835 300.915169 70.5672835"></polygon>
            <path d="M373.755427,20.1645065 L373.755427,70.5672835 L358.633253,70.5672835 L358.633253,65.8304324 C355.30852,69.6601318 350.370576,71.9794014 343.61386,71.9794014 C330.408771,71.9794014 319.52295,60.3875223 319.52295,45.3636606 C319.52295,30.3397989 330.408771,18.7702636 343.61386,18.7702636 C350.370576,18.7702636 355.30852,21.0895331 358.633253,24.9192325 L358.633253,20.1645065 L373.755427,20.1645065 Z M358.633253,45.3636606 C358.633253,37.8025738 353.592529,33.0701914 346.639189,33.0701914 C339.685849,33.0701914 334.645124,37.8070425 334.645124,45.3681294 C334.645124,52.9292162 339.68138,57.6481924 346.639189,57.6481924 C353.596997,57.6481924 358.633253,52.9247475 358.633253,45.3636606 L358.633253,45.3636606 Z" id="Shape"></path>
            <polygon id="Path" points="62.4057789 20.1645065 54.6033808 45.3636606 46.8009826 20.1645065 31.2006551 20.1645065 23.4027257 45.3636606 15.6003275 20.1645065 0 20.1645065 15.6003275 70.5672835 31.2006551 70.5672835 39.0030532 45.3636606 46.8009826 70.5672835 62.4057789 70.5672835 78.0061065 20.1645065"></polygon>
            <path d="M308.610318,15.7270602 C306.477323,15.7752733 304.420151,14.9352483 302.930565,13.4077906 C301.404609,11.9043176 300.565658,9.83845961 300.611296,7.69675693 C300.598408,5.65408474 301.439149,3.69883678 302.930565,2.30300289 C304.428635,0.790234135 306.481749,-0.0416728799 308.610318,0.00160825328 C310.666355,-0.025277728 312.641099,0.803467277 314.062166,2.28959671 C315.529456,3.69847887 316.3521,5.64922839 316.336748,7.68335075 C316.387872,9.82129542 315.566686,11.8879748 314.062166,13.4077906 C312.651643,14.9127955 310.672805,15.7546126 308.610318,15.7270602 Z" id="Path"></path>
            <polygon id="Path" points="411.931766 20.1645065 396.331438 70.5672835 380.73111 70.5672835 396.331438 20.1645065"></polygon>
            <path d="M420.614503,72.0330261 C418.296961,72.0822437 416.063208,71.166081 414.447659,69.5037264 C412.79308,67.8710936 411.883213,65.6295558 411.931766,63.3056014 C411.918608,61.0890483 412.83042,58.9674245 414.447659,57.4515684 C416.078181,55.8171682 418.306403,54.9210354 420.614503,54.9714247 C425.211375,55.0050759 428.937152,58.7090065 428.997836,63.3056014 C429.049932,65.6206318 428.159672,67.857571 426.531098,69.5037264 C425.00282,71.1420259 422.854796,72.0602899 420.614503,72.0330261 L420.614503,72.0330261 Z" id="Path"></path>
        </g>
    </g>
</svg>