<svg xmlns="http://www.w3.org/2000/svg" xmlns:xlink="http://www.w3.org/1999/xlink" width="48" height="48" viewBox="0 0 48 48">
    <defs>
        <path id="a" d="M42 19.028v15.79C42 36.568 40.554 38 38.786 38H9.214C7.446 38 6 36.568 6 34.818v-15.79a11.204 11.204 0 0 0 2.029 1.73c3.335 2.248 6.71 4.495 9.984 6.861 1.688 1.233 3.777 2.745 5.967 2.745h.04c2.19 0 4.28-1.512 5.967-2.745 3.274-2.346 6.65-4.613 10.004-6.86A11.8 11.8 0 0 0 42 19.029zm0-5.846c0 2.227-1.667 4.236-3.435 5.449-3.134 2.147-6.288 4.295-9.402 6.463-1.306.895-3.516 2.724-5.143 2.724h-.04c-1.627 0-3.837-1.83-5.143-2.724-3.114-2.168-6.268-4.316-9.382-6.463C8.03 17.676 6 15.429 6 13.619 6 11.67 7.065 10 9.214 10h29.572C40.533 10 42 11.432 42 13.182z"/>
    </defs>
    <g fill="none" fill-rule="evenodd">
        <mask id="b" fill="#fff">
            <use xlink:href="#a"/>
        </mask>
        <g fill="#fff" mask="url(#b)">
            <path d="M0 0h48v48H0z"/>
        </g>
    </g>
</svg>
