<?xml version="1.0" standalone="no"?>
<!DOCTYPE svg PUBLIC "-//W3C//DTD SVG 20010904//EN"
 "http://www.w3.org/TR/2001/REC-SVG-20010904/DTD/svg10.dtd">
<svg version="1.0" xmlns="http://www.w3.org/2000/svg"
 width="792.000000pt" height="265.000000pt" viewBox="0 0 792.000000 265.000000"
 preserveAspectRatio="xMidYMid meet">

<g transform="translate(0.000000,265.000000) scale(0.100000,-0.100000)"
fill="#6441A5" stroke="none">
<path d="M0 1737 l0 -912 208 -206 207 -206 337 -202 336 -201 296 0 295 0 3
44 3 44 110 -44 109 -44 551 0 550 1 90 105 c102 121 97 123 110 -25 l7 -81
363 0 362 0 7 37 c3 21 6 66 6 100 0 34 4 64 9 68 5 3 64 -42 129 -100 l120
-105 320 0 320 0 10 48 c6 26 16 76 23 110 l12 64 111 -111 111 -111 365 0
365 0 107 107 108 108 0 -108 0 -107 208 0 207 0 155 111 155 110 3 -110 3
-111 227 0 227 0 338 225 337 225 0 688 0 687 -203 203 -202 202 -248 0 -247
0 0 205 0 205 -433 0 -432 0 -205 -205 -205 -205 -225 0 -225 0 -107 -107
-108 -108 0 108 0 107 -205 0 -205 0 0 205 0 205 -775 0 -775 0 0 -205 0 -205
-923 0 -922 0 -205 205 -205 205 -432 0 -433 0 0 -913z m680 518 l0 -205 200
0 200 0 0 -245 0 -245 -200 0 -200 0 0 -230 0 -230 200 0 200 0 0 -245 0 -245
-287 0 -288 0 -157 157 -158 158 0 767 0 768 245 0 245 0 0 -205z m3120 95 l0
-110 -245 0 -245 0 0 110 0 110 245 0 245 0 0 -110z m680 -95 l0 -205 200 0
200 0 0 -245 0 -245 -200 0 -200 0 0 -230 0 -230 200 0 200 0 0 -245 0 -245
-287 0 -288 0 -157 157 -158 158 0 767 0 768 245 0 245 0 0 -205z m2350 0 l0
-205 293 0 292 0 163 -163 162 -162 0 -558 0 -557 -245 0 -245 0 0 475 0 475
-210 0 -210 0 0 -475 0 -475 -245 0 -245 0 0 925 0 925 245 0 245 0 0 -205z
m-5070 -680 l0 -475 95 0 95 0 0 475 0 475 245 0 245 0 0 -475 0 -475 95 0 95
0 0 475 0 475 245 0 245 0 0 -562 0 -563 -157 -157 -158 -158 -767 0 -768 0 0
720 0 720 245 0 245 0 0 -475z m2040 -245 l0 -720 -245 0 -245 0 0 720 0 720
245 0 245 0 0 -720z m2350 475 l0 -245 -295 0 -295 0 0 -230 0 -230 295 0 295
0 0 -245 0 -245 -377 0 -378 0 -157 157 -158 158 0 405 0 405 157 157 158 158
377 0 378 0 0 -245z"/>
</g>
</svg>
