<svg width="626" height="224" viewBox="0 0 626 224" xmlns="http://www.w3.org/2000/svg"><g fill="none" fill-rule="evenodd"><path d="M12.024,223.275139 C22.464,223.275139 24.516,218.955139 24.516,210.387139 C24.516,201.819139 22.464,197.463139 12.024,197.463139 L3.672,197.463139 L3.672,223.275139 L12.024,223.275139 Z M12.636,220.251139 L7.128,220.251139 L7.128,200.523139 L12.636,200.523139 C18.972,200.523139 20.988,203.187139 20.988,210.387139 C20.988,217.551139 18.972,220.287139 12.636,220.251139 Z M48.132,223.167139 L48.132,220.143139 L34.2,220.143139 L34.2,211.359139 L46.044,211.359139 L46.044,208.479139 L34.2,208.479139 L34.2,200.595139 L47.916,200.595139 L47.916,197.571139 L30.78,197.571139 L30.78,223.167139 L48.132,223.167139 Z M75.852,223.167139 L83.196,212.475139 L90.504,223.167139 L94.428,223.167139 L85.428,210.315139 L94.572,197.571139 L90.612,197.571139 L83.268,208.299139 L75.924,197.571139 L72,197.571139 L81,210.351139 L71.892,223.167139 L75.852,223.167139 Z M100.656,223.167139 L102.888,217.119139 L115.056,217.119139 L117.288,223.167139 L121.068,223.167139 L110.916,197.571139 L107.1,197.571139 L96.984,223.167139 L100.656,223.167139 Z M113.976,214.131139 L103.968,214.131139 L109.008,200.595139 L113.976,214.131139 Z M134.964,223.167139 L135.072,200.667139 L143.532,200.667139 L143.532,197.571139 L123.228,197.571139 L123.228,200.667139 L131.652,200.667139 L131.544,223.167139 L134.964,223.167139 Z M149.4,223.167139 L151.632,217.119139 L163.8,217.119139 L166.032,223.167139 L169.812,223.167139 L159.66,197.571139 L155.844,197.571139 L145.728,223.167139 L149.4,223.167139 Z M162.72,214.131139 L152.712,214.131139 L157.752,200.595139 L162.72,214.131139 Z M177.984,223.167139 L177.984,217.227139 L183.528,210.747139 L191.16,223.167139 L194.976,223.167139 L185.796,208.155139 L194.904,197.571139 L190.728,197.571139 L177.984,212.727139 L177.984,197.571139 L174.564,197.571139 L174.564,223.167139 L177.984,223.167139 Z M200.916,223.167139 L203.148,217.119139 L215.316,217.119139 L217.548,223.167139 L221.328,223.167139 L211.176,197.571139 L207.36,197.571139 L197.244,223.167139 L200.916,223.167139 Z M214.236,214.131139 L204.228,214.131139 L209.268,200.595139 L214.236,214.131139 Z" fill="#8697A9"/><path d="M87.8931969,46.798 L100.313907,46.7988669 L100.313907,57.3047349 L64.9651969,57.3047349 L64.9651969,46.7988669 L77.3841969,46.798 L77.3841969,10.505 L64.9651969,10.5058681 L64.9651969,0 L87.8940899,0 L87.8931969,46.798 Z M43.947045,46.7988669 L43.947045,73.5410765 L31.5272279,73.5410765 L31.527,59.2148669 L12.419,59.2148669 L12.419,158.542867 L31.527,158.542867 L31.5272279,144.216916 L43.947045,144.216916 L43.947045,170.959126 L0,170.959126 L0,46.7988669 L43.947045,46.7988669 Z M149.037805,12.4160259 L149.037805,57.3047349 L113.689095,57.3047349 L113.689095,28.6523675 L139.484095,28.6520259 L139.484095,21.9660259 L124.198171,21.9668151 L124.198171,12.4160259 L149.037805,12.4160259 Z M139.484095,38.2030259 L123.242095,38.2030259 L123.242095,47.7530259 L139.484095,47.7530259 L139.484095,38.2030259 Z M57.3222326,170.959126 L57.3222326,110.789154 L87.8940899,110.789154 L87.8932326,88.8213921 L64.9651969,88.8223391 L64.9651969,77.3613921 L99.3585364,77.3613921 L99.3585364,170.959126 L57.3222326,170.959126 Z M87.8940899,122.250101 L68.7862326,122.249392 L68.7862326,159.497392 L87.8940899,159.498179 L87.8940899,122.250101 Z M154.770028,100.283286 L143.305581,100.283286 L143.305581,88.8223391 L124.198171,88.8223391 L124.198171,159.498179 L143.305581,159.498179 L143.305581,148.037232 L154.770028,148.037232 L154.770028,170.959126 L112.733724,170.959126 L112.733724,77.3613921 L154.770028,77.3613921 L154.770028,100.283286 Z M210.181519,77.3613921 L210.181519,170.959126 L198.717073,170.959126 L198.716215,88.8222355 L179.609215,88.8222355 L179.609662,170.959126 L168.145215,170.959126 L168.145215,39.1582355 L179.609662,39.1582355 L179.609215,77.3612355 L210.181519,77.3613921 Z M223.556707,170.959126 L223.556707,110.789154 L254.128564,110.789154 L254.127707,88.8213921 L231.199671,88.8223391 L231.199671,77.3613921 L265.593011,77.3613921 L265.593011,170.959126 L223.556707,170.959126 Z M254.128564,122.250101 L235.020707,122.249392 L235.020707,159.497392 L254.128564,159.498179 L254.128564,122.250101 Z M292.343386,77.3613921 L292.34294,85.0013921 L319.093761,85.0020235 L319.093761,107.923917 L307.629315,107.923917 L307.62894,96.4623921 L292.34294,96.4623921 L292.343386,170.959126 L280.87894,170.959126 L280.87894,77.3613921 L292.343386,77.3613921 Z M342.022654,77.3613921 L342.022208,85.0013921 L368.773029,85.0020235 L368.773029,107.923917 L357.308583,107.923917 L357.308208,96.4623921 L342.022208,96.4623921 L342.022654,170.959126 L330.558208,170.959126 L330.558208,77.3613921 L342.022654,77.3613921 Z M424.184521,77.3613921 L424.184521,122.250101 L393.612217,122.249392 L393.612664,159.498179 L412.720074,159.498179 L412.720074,148.037232 L424.184521,148.037232 L424.184521,170.959126 L382.148217,170.959126 L382.148217,77.3613921 L424.184521,77.3613921 Z M450.934896,77.3613921 L450.93445,85.0013921 L477.685271,85.0020235 L477.685271,107.923917 L466.220825,107.923917 L466.22045,96.4623921 L450.93445,96.4623921 L450.934896,170.959126 L439.47045,170.959126 L439.47045,77.3613921 L450.934896,77.3613921 Z M412.719217,88.8213921 L393.612217,88.8213921 L393.612217,110.788392 L412.720074,110.789154 L412.719217,88.8213921 Z M502.524905,77.3613921 L502.524905,159.498179 L513.989352,159.498179 L513.989352,170.959126 L491.060459,170.959126 L491.060459,77.3613921 L502.524905,77.3613921 Z M513.989352,58.2598138 L513.989352,69.7207608 L491.060459,69.7207608 L491.060459,58.2598138 L513.989352,58.2598138 Z M607.13798,131.900906 L607.317054,131.80089 L625.767705,142.302819 L625.767705,163.321121 L607.317054,173.824363 L607.13798,173.724347 L606.958905,173.824363 L588.508254,163.321121 L588.508254,142.302819 L606.958905,131.80089 L607.13798,131.900906 Z M569.400843,77.3613921 L569.400843,170.959126 L527.364539,170.959126 L527.364539,110.789154 L557.936397,110.789154 L557.935539,88.8213921 L535.007504,88.8223391 L535.007504,77.3613921 L569.400843,77.3613921 Z M607.13798,142.790267 C601.525845,142.790267 596.976311,147.280103 596.976311,152.818596 C596.976311,158.357089 601.525845,162.846924 607.13798,162.846924 C612.750114,162.846924 617.299648,158.357089 617.299648,152.818596 C617.299648,147.280103 612.750114,142.790267 607.13798,142.790267 Z M538.828539,122.249392 L538.828539,159.497392 L557.936397,159.498179 L557.936397,122.250101 L538.828539,122.249392 Z M607.13556,148.823978 C609.369724,148.823978 611.180872,150.61136 611.180872,152.816208 C611.180872,155.021056 609.369724,156.808438 607.13556,156.808438 C604.901396,156.808438 603.090249,155.021056 603.090249,152.816208 C603.090249,150.61136 604.901396,148.823978 607.13556,148.823978 Z" fill="#FFE829" fill-rule="nonzero"/></g></svg>